<svg width="25" height="32" viewBox="0 0 25 32" fill="none" xmlns="http://www.w3.org/2000/svg">
<path fill-rule="evenodd" clip-rule="evenodd" d="M15.2116 3.5C14.4673 3.50006 13.7348 3.62458 13.0585 3.86221C12.382 4.09988 11.7832 4.443 11.2914 4.86136C10.8001 5.27936 10.4286 5.76094 10.1835 6.27002C9.93908 6.77781 9.8216 7.30967 9.82789 7.8378L9.83927 8.80327C9.83943 8.8169 9.83941 8.83054 9.8392 8.84417L9.75694 14.1568C9.74426 14.9761 9.0765 15.6336 8.25712 15.6336H3.5V18.2314H8.33938C9.1678 18.2314 9.83938 18.9029 9.83938 19.7314V28.5H14.5184V19.7314C14.5184 18.9029 15.1899 18.2314 16.0184 18.2314H20.7264L21.2011 15.6336H16.0175C15.1891 15.6336 14.5175 14.962 14.5175 14.1336V9.04937C14.5175 7.18833 16.2124 6.1 17.7386 6.1H21.5V3.5H15.2116C15.2116 3.5 15.2117 3.5 15.2116 3.5ZM12.064 1.03183C13.067 0.679422 14.1362 0.500069 15.2115 0.5H23C23.8284 0.5 24.5 1.17157 24.5 2V7.6C24.5 8.42843 23.8284 9.1 23 9.1H17.7386C17.6331 9.1 17.5593 9.1278 17.5175 9.15163V12.6336H23C23.445 12.6336 23.8671 12.8312 24.1521 13.173C24.437 13.5148 24.5556 13.9654 24.4756 14.4032L23.4527 20.001C23.3225 20.7136 22.7016 21.2314 21.9771 21.2314H17.5184V30C17.5184 30.8284 16.8468 31.5 16.0184 31.5H8.33938C7.51095 31.5 6.83938 30.8284 6.83938 30V21.2314H2C1.17157 21.2314 0.5 20.5598 0.5 19.7314V14.1336C0.5 13.3052 1.17157 12.6336 2 12.6336H6.78017L6.83924 8.81818L6.82811 7.87357C6.82811 7.8735 6.82811 7.87364 6.82811 7.87357C6.81617 6.86946 7.04127 5.88102 7.48045 4.96873C7.91904 4.05768 8.55877 3.24733 9.3476 2.5763C10.136 1.90563 11.0611 1.38421 12.064 1.03183Z" fill="#56F261"/>
</svg>
