<svg width="115" height="77" viewBox="0 0 115 77" fill="none" xmlns="http://www.w3.org/2000/svg">
<path d="M38.3333 0V38.3333H76.6666L38.3333 0Z" fill="#1C79F2"/>
<path d="M38.3333 0V38.3333H0L38.3333 0Z" fill="#56F261"/>
<path d="M76.6667 0V38.3333H38.3334L76.6667 0Z" fill="#56F261"/>
<path d="M76.6667 0V38.3333H115L76.6667 0Z" fill="#1C79F2"/>
<path d="M0 70.9757V50H0.0282988L11.6027 65.8824L9.84812 65.499L21.3942 50H21.4508V70.9757H17.3474V58.9544L17.6021 61.0081L10.5556 70.7018H10.499L3.25441 61.0081L3.96189 59.1187V70.9757H0Z" fill="#C9E7F2"/>
<path d="M26.8345 70.9757V50.8215H33.0603C35.1545 50.8215 36.9373 51.1227 38.4089 51.7252C39.8804 52.3276 41.0596 53.1308 41.9463 54.1349C42.8518 55.1389 43.5122 56.2617 43.9272 57.503C44.3423 58.7444 44.5498 59.9949 44.5498 61.2546C44.5498 62.7515 44.2668 64.1024 43.7008 65.3073C43.1537 66.4939 42.3991 67.5162 41.4369 68.3742C40.4747 69.214 39.3616 69.8621 38.0976 70.3185C36.8335 70.7566 35.4941 70.9757 34.0791 70.9757H26.8345ZM30.9379 67.142H33.3716C34.4092 67.142 35.3526 67.0142 36.2015 66.7586C37.0505 66.4848 37.7769 66.0923 38.3806 65.5811C39.0032 65.07 39.4748 64.431 39.7955 63.6643C40.1351 62.8793 40.3049 61.9848 40.3049 60.9807C40.3049 59.6663 40.0785 58.5984 39.6257 57.7769C39.1918 56.9371 38.6447 56.289 37.9844 55.8327C37.3429 55.3763 36.6826 55.0659 36.0034 54.9016C35.3243 54.7191 34.7488 54.6278 34.2772 54.6278H30.9379V67.142Z" fill="#C9E7F2"/>
<path d="M54.1003 71.3043C52.591 71.3043 51.3082 71.0304 50.2516 70.4828C49.214 69.9351 48.4216 69.1775 47.8745 68.2099C47.3274 67.2424 47.0538 66.1288 47.0538 64.8692C47.0538 63.6643 47.3746 62.5781 48.016 61.6105C48.6575 60.643 49.5159 59.8763 50.5912 59.3103C51.6666 58.7262 52.8646 58.4341 54.1852 58.4341C55.9586 58.4341 57.4113 58.9361 58.5433 59.9402C59.6941 60.926 60.4394 62.359 60.7789 64.2394L51.1572 67.1968L50.2799 65.1156L57.2416 62.8428L56.4209 63.1988C56.2699 62.7241 55.9964 62.3134 55.6002 61.9665C55.2229 61.6014 54.6475 61.4189 53.8739 61.4189C53.2891 61.4189 52.7703 61.5558 52.3175 61.8296C51.8836 62.0852 51.544 62.4594 51.2987 62.9523C51.0723 63.427 50.9591 63.9929 50.9591 64.6501C50.9591 65.3986 51.1006 66.0284 51.3836 66.5396C51.6666 67.0325 52.0534 67.4067 52.5439 67.6623C53.0344 67.9178 53.5815 68.0456 54.1852 68.0456C54.6192 68.0456 55.0342 67.9726 55.4304 67.8266C55.8455 67.6805 56.2511 67.4888 56.6473 67.2515L58.4018 70.0994C57.7415 70.4645 57.0246 70.7566 56.2511 70.9757C55.4964 71.1947 54.7795 71.3043 54.1003 71.3043Z" fill="#C9E7F2"/>
<path d="M67.6764 71.2221C66.6577 71.2221 65.7049 71.0487 64.8182 70.7018C63.9504 70.355 63.2146 69.8712 62.6109 69.2505L64.2522 67.142C64.8559 67.6714 65.4125 68.0548 65.9219 68.2921C66.4501 68.5112 66.9218 68.6207 67.3368 68.6207C67.6576 68.6207 67.9406 68.5933 68.1858 68.5385C68.45 68.4655 68.6575 68.3651 68.8084 68.2373C68.9593 68.0913 69.0348 67.9087 69.0348 67.6897C69.0348 67.3793 68.9027 67.1329 68.6386 66.9503C68.3933 66.7677 68.0726 66.6217 67.6764 66.5122C67.2803 66.3844 66.8558 66.2566 66.403 66.1288C65.271 65.7819 64.4503 65.2799 63.9409 64.6227C63.4504 63.9473 63.2052 63.217 63.2052 62.432C63.2052 61.8296 63.3655 61.2272 63.6862 60.6247C64.0258 60.0041 64.5541 59.4929 65.271 59.0913C66.0068 58.6714 66.9501 58.4615 68.1009 58.4615C69.1386 58.4615 70.0158 58.5619 70.7327 58.7627C71.4497 58.9635 72.1288 59.2921 72.7703 59.7485L71.2704 61.9939C70.912 61.7201 70.5064 61.4919 70.0536 61.3093C69.6197 61.1085 69.214 60.999 68.8367 60.9807C68.4971 60.9625 68.2047 60.999 67.9594 61.0903C67.733 61.1815 67.5538 61.3002 67.4217 61.4462C67.2897 61.5923 67.2236 61.7475 67.2236 61.9118C67.2048 62.2586 67.3368 62.5325 67.6198 62.7333C67.9217 62.9341 68.299 63.0892 68.7518 63.1988C69.2046 63.3083 69.6479 63.4361 70.0819 63.5821C70.6856 63.7647 71.2044 64.0112 71.6383 64.3215C72.0722 64.6318 72.4024 65.0061 72.6288 65.4442C72.8741 65.8641 72.9967 66.3753 72.9967 66.9777C72.9967 67.7079 72.7986 68.4016 72.4024 69.0588C72.0251 69.6978 71.4402 70.2181 70.6479 70.6197C69.8743 71.0213 68.8839 71.2221 67.6764 71.2221Z" fill="#C9E7F2"/>
<path d="M76.3152 59.0091H80.2771V70.9757H76.3152V59.0091ZM76.2303 54.7647C76.2303 54.1988 76.4567 53.7333 76.9095 53.3682C77.3811 53.003 77.8811 52.8205 78.4093 52.8205C78.9376 52.8205 79.4187 53.003 79.8526 53.3682C80.3054 53.7333 80.5318 54.1988 80.5318 54.7647C80.5318 55.3306 80.3054 55.7961 79.8526 56.1613C79.4187 56.5081 78.9376 56.6815 78.4093 56.6815C77.8811 56.6815 77.3811 56.5081 76.9095 56.1613C76.4567 55.7961 76.2303 55.3306 76.2303 54.7647Z" fill="#C9E7F2"/>
<path d="M90.7529 77C89.6398 77 88.6965 76.8722 87.923 76.6166C87.1683 76.3611 86.5269 76.0507 85.9986 75.6856C85.4704 75.3205 84.9987 74.9736 84.5837 74.645L86.9042 72.0162C87.3381 72.3996 87.8381 72.7647 88.4041 73.1116C88.9889 73.4767 89.753 73.6592 90.6963 73.6592C91.3189 73.6592 91.8943 73.5497 92.4225 73.3306C92.9697 73.1298 93.4036 72.8286 93.7243 72.427C94.0639 72.0254 94.2337 71.5233 94.2337 70.9209V68.2921L94.3752 68.9767C94.0733 69.5974 93.5262 70.145 92.7338 70.6197C91.9415 71.0761 90.9038 71.3043 89.6209 71.3043C88.5078 71.3043 87.4702 71.0304 86.508 70.4828C85.5647 69.9168 84.8101 69.1592 84.2441 68.2099C83.6781 67.2424 83.3951 66.1471 83.3951 64.9239C83.3951 63.6643 83.697 62.5507 84.3007 61.5832C84.9044 60.5974 85.6873 59.8215 86.6495 59.2556C87.6117 58.6897 88.6304 58.4067 89.7058 58.4067C90.7812 58.4067 91.7056 58.5619 92.4791 58.8722C93.2715 59.1643 93.8658 59.5294 94.262 59.9675L94.1205 60.3235L94.545 59.0091H98.1956V70.9757C98.1956 72.144 97.856 73.1755 97.1768 74.07C96.4976 74.9828 95.592 75.6947 94.4601 76.2059C93.347 76.7353 92.1113 77 90.7529 77ZM87.3853 64.8144C87.3853 65.4533 87.5362 66.0284 87.8381 66.5396C88.1399 67.0507 88.5455 67.4523 89.0549 67.7444C89.5832 68.0365 90.168 68.1826 90.8095 68.1826C91.3566 68.1826 91.8377 68.1187 92.2528 67.9909C92.6867 67.8448 93.064 67.644 93.3847 67.3884C93.7243 67.1146 94.0073 66.7769 94.2337 66.3753V63.4452C94.0639 63.0436 93.8092 62.7059 93.4696 62.432C93.13 62.14 92.7338 61.9209 92.281 61.7748C91.8471 61.6105 91.3566 61.5284 90.8095 61.5284C90.168 61.5284 89.5832 61.6744 89.0549 61.9665C88.5455 62.2404 88.1399 62.6237 87.8381 63.1166C87.5362 63.6095 87.3853 64.1755 87.3853 64.8144Z" fill="#C9E7F2"/>
<path d="M105.859 59.0091L106.171 61.145L106.114 60.9533C106.548 60.2049 107.161 59.6024 107.953 59.146C108.746 58.6714 109.717 58.4341 110.868 58.4341C112.038 58.4341 113.01 58.7718 113.783 59.4473C114.576 60.1045 114.981 60.9625 115 62.0213V70.9757H111.038V63.4452C111.019 62.9158 110.868 62.4959 110.585 62.1856C110.321 61.857 109.868 61.6927 109.227 61.6927C108.623 61.6927 108.095 61.8844 107.642 62.2677C107.189 62.6511 106.84 63.1714 106.595 63.8286C106.35 64.4858 106.227 65.2434 106.227 66.1014V70.9757H102.265V59.0091H105.859Z" fill="#C9E7F2"/>
</svg>
